{"title":"Herostratus (Don Levy, 1967)","uid":6903131,"size":1883947779,"categoryP":"video","categoryS":"movies","magnet":"?xt=urn:btih:5df327bdf72b33a8862f30c4c3a10f64753170a9&amp;dn=Herostratus+%28Don+Levy%2C+1967%29+&amp;tr=udp%3A%2F%2Ftracker.openbittorrent.com%3A80&amp;tr=udp%3A%2F%2Fopen.demonii.com%3A1337&amp;tr=udp%3A%2F%2Ftracker.coppersurfer.tk%3A6969&amp;tr=udp%3A%2F%2Fexodus.desync.com%3A6969","seeders":3,"leechers":2,"uploader":"tonioferah","files":2,"time":1324429043,"description":"A young poet wishing to take his own life soon finds events have overtaken him in this experimental 1960s drama from director Don Levy. Disillusioned poet Max (Michael Gothard) decides to commit suicide, but rather than making it a quiet affair, Max contacts the local media so that, he hopes, his name will live on. \n\n_______________________________________\n\nRip Specs\n\nSource: Blu-Ray\n\nGeneral\nComplete name                    : C:\\Users\\antonio\\Documents\\Filmes\\Herostratus (Don Levy, 1967)\\Herostratus.1967.BluRay.MKO.mkv\nFormat                           : Matroska\nFile size                        : 1.75 GiB\nDuration                         : 2h 23mn\nOverall bit rate                 : 1 753 Kbps\nMovie name                       : Herostratus 1967 720p BluRay \n\nVideo\nID                               : 1\nFormat                           : AVC\nFormat/Info                      : Advanced Video Codec\nFormat profile                   : &lt;a class=&quot;__cf_email__&quot; href=&quot;/cdn-cgi/l/email-protection&quot; data-cfemail=&quot;b2fadbd5daf2fe869c82&quot;&gt;[email&amp;#160;protected]&lt;/a&gt;&lt;script cf-hash='f9e31' type=&quot;text/javascript&quot;&gt;\n/* &lt;![CDATA[ */!function(){try{var t=&quot;currentScript&quot;in document?document.currentScript:function(){for(var t=document.getElementsByTagName(&quot;script&quot;),e=t.length;e--;)if(t[e].getAttribute(&quot;cf-hash&quot;))return t[e]}();if(t&amp;&amp;t.previousSibling){var e,r,n,i,c=t.previousSibling,a=c.getAttribute(&quot;data-cfemail&quot;);if(a){for(e=&quot;&quot;,r=parseInt(a.substr(0,2),16),n=2;a.length-n;n+=2)i=parseInt(a.substr(n,2),16)^r,e+=String.fromCharCode(i);e=document.createTextNode(e),c.parentNode.replaceChild(e,c)}}}catch(u){}}();/* ]]&gt; */&lt;/script&gt;\nFormat settings, CABAC           : Yes\nFormat settings, ReFrames        : 3 frames\nCodec ID                         : V_MPEG4/ISO/AVC\nDuration                         : 2h 23mn\nBit rate mode                    : Variable\nBit rate                         : 1 496 Kbps\nMaximum bit rate                 : 25.0 Mbps\nWidth                            : 960 pixels\nHeight                           : 720 pixels\nDisplay aspect ratio             : 4:3\nFrame rate                       : 23.976 fps\nColor space                      : YUV\nChroma subsampling               : 4:2:0\nBit depth                        : 8 bits\nScan type                        : Progressive\nBits/(Pixel*Frame)               : 0.090\nStream size                      : 1.46 GiB (83%)\n\n\nAudio\nID                               : 2\nFormat                           : AC-3\nFormat/Info                      : Audio Coding 3\nMode extension                   : CM (complete main)\nCodec ID                         : A_AC3\nDuration                         : 2h 23mn\nBit rate mode                    : Constant\nBit rate                         : 256 Kbps\nChannel(s)                       : 2 channels\nChannel positions                : Front: L R\nSampling rate                    : 48.0 KHz\nBit depth                        : 16 bits\nCompression mode                 : Lossy\nStream size                      : 262 MiB (15%)\nLanguage                         : English\n","torrent":{"xt":"urn:btih:5df327bdf72b33a8862f30c4c3a10f64753170a9","amp;dn":"Herostratus+%28Don+Levy%2C+1967%29+","amp;tr":["udp%3A%2F%2Ftracker.openbittorrent.com%3A80","udp%3A%2F%2Fopen.demonii.com%3A1337","udp%3A%2F%2Ftracker.coppersurfer.tk%3A6969","udp%3A%2F%2Fexodus.desync.com%3A6969"],"infoHash":"5df327bdf72b33a8862f30c4c3a10f64753170a9","infoHashBuffer":{"type":"Buffer","data":[93,243,39,189,247,43,51,168,134,47,48,196,195,161,15,100,117,49,112,169]},"announce":[],"urlList":[]}}